<?xml version="1.0" encoding="iso-8859-1"?>
<!-- Generator: Adobe Illustrator 19.0.0, SVG Export Plug-In . SVG Version: 6.00 Build 0)  -->
<svg fill="#5CCFE6" version="1.1" id="Capa_1" xmlns="http://www.w3.org/2000/svg" xmlns:xlink="http://www.w3.org/1999/xlink" x="0px" y="0px"
	 viewBox="0 0 512 512" style="enable-background:new 0 0 512 512;" xml:space="preserve">
<g>
	<g>
		<path d="M295.98,267.145c-3.276-5.274-8.411-8.956-14.458-10.368c-6.045-1.412-12.279-0.384-17.555,2.892l-50.293,31.255
			c-13.5,8.388-17.658,26.196-9.269,39.696c4.864,7.828,12.864,13.212,21.948,14.771c1.813,0.311,3.635,0.464,5.449,0.464
			c7.275,0,14.407-2.462,20.168-7.071l36.763-29.414C301.484,299.168,304.6,281.015,295.98,267.145z M279.366,297.662
			l-36.763,29.414c-3.852,3.082-8.847,4.372-13.713,3.537c-4.862-0.835-9.145-3.716-11.749-7.906
			c-2.469-3.974-2.664-8.721-0.957-12.73l4.263,2.304c4.784,2.586,10.08,3.873,15.37,3.873c5.834,0,11.661-1.565,16.787-4.677
			l3.037-1.844c3.54-2.149,4.667-6.76,2.519-10.299c-2.149-3.541-6.761-4.667-10.299-2.519l-3.037,1.844
			c-5.001,3.035-11.241,3.319-16.488,0.808l43.546-27.062c1.325-0.822,2.818-1.246,4.339-1.246c0.63,0,1.264,0.073,1.892,0.219
			c2.146,0.502,3.968,1.809,5.132,3.68C287.859,282.484,286.191,292.201,279.366,297.662z"/>
	</g>
</g>
<g>
	<g>
		<path d="M438.32,64.194l-26.066-41.945l-9.999-16.092c-1.837-2.956-4.715-5.02-8.105-5.811c-3.389-0.792-6.884-0.214-9.84,1.622
			l-13.439,8.352c-1.35,0.839-2.522,1.904-3.482,3.164l-40.345,52.891L134.479,186.038c-7.922,4.923-11.01,15.08-7.182,23.626
			c2.183,4.873,3.691,9.902,4.589,14.977l-14.98,9.309c-1.938,1.204-4.228,1.582-6.451,1.063l-6.681-1.56
			c-6.043-1.409-12.278-0.384-17.553,2.893l-8.884,5.52c-3.837,2.384-5.962,6.66-5.545,11.159c0.418,4.498,3.292,8.311,7.501,9.949
			l38.158,14.852c-4.24,4.999-9.291,9.423-15.102,13.035c-5.159,3.2-8.277,8.47-8.97,14.085c-0.02,0.127-0.045,0.253-0.058,0.381
			c-0.029,0.278-0.035,0.555-0.052,0.832c-0.01,0.16-0.024,0.319-0.03,0.479c-0.02,0.55-0.018,1.098,0.009,1.642
			c0.001,0.029,0,0.058,0.002,0.087c0.033,0.618,0.096,1.23,0.188,1.838c0.003,0.017,0.007,0.034,0.009,0.051
			c0.086,0.563,0.202,1.119,0.338,1.671c0.031,0.128,0.069,0.255,0.103,0.382c0.119,0.443,0.254,0.882,0.405,1.317
			c0.056,0.161,0.113,0.32,0.174,0.48c0.157,0.413,0.33,0.82,0.515,1.224c0.07,0.153,0.135,0.308,0.21,0.46
			c0.266,0.54,0.551,1.073,0.87,1.592l0.14,0.228l0.155,0.252c0.043,0.07,0.09,0.147,0.134,0.218c0.4,0.652,0.821,1.335,1.257,2.036
			c0.136,0.219,0.267,0.432,0.407,0.655c0.119,0.191,0.245,0.387,0.367,0.581c0.217,0.344,0.433,0.687,0.658,1.039
			c0.126,0.197,0.258,0.397,0.386,0.596c0.188,0.291,0.373,0.58,0.567,0.875c7.209,10.964,10.727,24.036,9.903,36.81l-3.062,47.48
			c-0.995,15.421,1.507,31.157,7.235,45.507l17.211,43.12c2.658,6.662,8.092,11.767,14.906,14.007
			c2.474,0.813,5.025,1.214,7.562,1.214c3.34,0,6.658-0.695,9.745-2.06c1.029-0.455,2.033-0.984,3.003-1.587l57.187-35.538
			c8.124-5.048,13.765-12.965,15.881-22.292c2.116-9.328,0.446-18.904-4.703-26.965l-6.419-10.049
			c-2.926-4.58-5.47-9.335-7.623-14.246c-3.588-8.184-6.092-16.798-7.476-25.751l-1.416-9.158c3.317,1.295,6.765,2.258,10.291,2.863
			c12.811,2.198,25.943-0.37,36.986-7.233c1.779-1.105,3.507-2.327,5.135-3.63l38.287-30.633
			c20.965-16.775,26.088-46.622,11.917-69.428l-4.699-7.562l11.42-7.097c6.705-4.166,11.386-10.693,13.18-18.38
			c1.795-7.686,0.489-15.611-3.677-22.315l-14.034-22.583l93.173-57.9c8.2-5.096,10.727-15.915,5.631-24.118
			c-0.479-0.77-0.402-1.521-0.313-1.9c0.087-0.377,0.351-1.077,1.11-1.556l17.725-11.018c2.912-1.809,4.945-4.644,5.724-7.982
			C440.696,70.546,440.129,67.105,438.32,64.194z M379.091,22.864l11.466-7.125l5.005,8.055l-32.664,20.299L379.091,22.864z
			 M90.594,251.282l3.541-2.2c1.872-1.164,4.085-1.529,6.23-1.027l6.681,1.56c6.12,1.428,12.434,0.389,17.775-2.929l7.756-4.82
			c-0.761,8.062-3.021,15.93-6.659,23.164L90.594,251.282z M215.944,421.581l6.419,10.048c2.975,4.656,3.939,10.187,2.717,15.574
			c-1.07,4.714-3.697,8.804-7.481,11.706c-0.541,0.415-1.105,0.805-1.691,1.169l-57.188,35.538
			c-2.313,1.437-5.124,1.775-7.713,0.924c-2.588-0.85-4.652-2.789-5.661-5.319l-17.211-43.12
			c-4.907-12.293-7.05-25.773-6.198-38.983l3.062-47.48c0.001-0.017,0.001-0.035,0.002-0.052
			c1.025-16.071-3.286-32.286-12.141-45.662c-0.093-0.141-0.183-0.28-0.275-0.42c-0.122-0.185-0.23-0.362-0.349-0.546l15.52,1.789
			c9.762,1.125,18.335,6.558,23.523,14.904c6.627,10.667,17.013,18.113,29.244,20.966l15.101,3.524l3.04,19.662
			c0.197,1.272,0.42,2.536,0.656,3.795C202.125,394.576,207.704,408.684,215.944,421.581z M318.166,208.854
			c2.052,3.302,2.695,7.205,1.811,10.991c-0.883,3.786-3.189,7.001-6.492,9.053l-17.788,11.054
			c-1.689,1.049-2.892,2.727-3.344,4.663c-0.452,1.936-0.116,3.973,0.933,5.662l8.657,13.93c10.166,16.36,6.491,37.772-8.549,49.805
			l-38.288,30.633c-1.168,0.934-2.405,1.81-3.68,2.602c-7.924,4.924-17.347,6.767-26.534,5.19
			c-6.545-1.123-12.717-3.966-17.851-8.221c-0.014-0.012-0.03-0.02-0.045-0.032c-0.19-0.155-0.397-0.289-0.603-0.426
			c-0.108-0.072-0.211-0.156-0.322-0.222c-0.193-0.114-0.4-0.204-0.604-0.301c-0.135-0.064-0.266-0.142-0.405-0.198
			c-0.158-0.064-0.328-0.105-0.492-0.158c-0.194-0.063-0.385-0.136-0.583-0.183c-0.01-0.002-0.019-0.007-0.029-0.009l-20.033-4.674
			c-8.329-1.943-15.402-7.014-19.916-14.278c-7.617-12.257-20.207-20.234-34.542-21.886l-14.222-1.639
			c7.974-5.829,14.613-12.969,19.773-20.964c0.229-0.269,0.444-0.553,0.636-0.86c9.464-15.05,13.656-33.072,11.805-50.747
			c-0.017-0.165-0.055-0.323-0.082-0.485c-0.875-7.999-2.97-15.965-6.399-23.62c-0.776-1.732-0.169-3.778,1.413-4.761
			l122.286-75.992L318.166,208.854z M355.323,113.226c-3.516,2.185-4.596,6.808-2.41,10.325c1.42,2.285,3.869,3.541,6.375,3.541
			c1.351,0,2.719-0.365,3.951-1.13l38.539-23.949c0.336,0.765,0.709,1.518,1.158,2.241c0.732,1.179,0.369,2.735-0.81,3.468
			l-93.172,57.899l-2.656-4.274l27.309-16.97c3.516-2.185,4.596-6.808,2.41-10.325c-2.186-3.518-6.809-4.595-10.325-2.411
			l-27.309,16.97l-20.968-33.741l126.061-78.338l20.967,33.739L355.323,113.226z"/>
	</g>
</g>
<g>
	<g>
		<path d="M307.925,208.072c-0.021-0.045-0.037-0.092-0.059-0.137c-0.179-0.365-0.376-0.723-0.593-1.072l-37.05-59.622
			c-1.537-2.472-3.828-4.195-6.392-5.057c-3.236-1.091-6.904-0.8-10.043,1.077c-0.06,0.036-0.122,0.064-0.182,0.1h0.001
			l-48.999,30.449l-38.463,23.902c-5.651,3.511-7.392,10.966-3.88,16.618l37.048,59.62c1.702,2.738,4.367,4.649,7.506,5.382
			c0.919,0.215,1.845,0.321,2.766,0.321c2.225,0,4.41-0.619,6.346-1.822l87.462-54.351c0.349-0.217,0.683-0.45,1.004-0.697
			c0.058-0.045,0.11-0.096,0.168-0.142c0.261-0.208,0.517-0.421,0.757-0.648c0.017-0.016,0.032-0.034,0.049-0.051
			c1.678-1.602,2.862-3.654,3.403-5.967C309.402,213.287,309.094,210.529,307.925,208.072z M212.524,186.546l9.137-5.678
			l37.374-23.225l4.558,7.333l-46.511,28.903c-2.023,1.258-4.69,0.634-5.947-1.388C209.878,190.47,210.501,187.803,212.524,186.546z
			 M227.8,247.717c0.784,1.261,1.696,2.393,2.701,3.405l-19.995,12.426l-33.958-54.645l20.002-12.429
			c0.463,1.349,1.067,2.671,1.851,3.933c3.653,5.88,9.973,9.114,16.434,9.114c3.477,0,6.996-0.938,10.162-2.904l46.51-28.905
			l9.014,14.506l-46.511,28.903C224.965,226.742,222.179,238.673,227.8,247.717z M246.48,241.191
			c-2.024,1.257-4.689,0.633-5.945-1.389c-1.256-2.022-0.634-4.689,1.389-5.946l46.51-28.903l4.558,7.335L246.48,241.191z"/>
	</g>
</g>
<g>
</g>
<g>
</g>
<g>
</g>
<g>
</g>
<g>
</g>
<g>
</g>
<g>
</g>
<g>
</g>
<g>
</g>
<g>
</g>
<g>
</g>
<g>
</g>
<g>
</g>
<g>
</g>
<g>
</g>
</svg>
