<?xml version="1.0" standalone="no"?>
<!DOCTYPE svg PUBLIC "-//W3C//DTD SVG 20010904//EN"
 "http://www.w3.org/TR/2001/REC-SVG-20010904/DTD/svg10.dtd">
<svg version="1.0" xmlns="http://www.w3.org/2000/svg"
 width="500.000000pt" height="500.000000pt" viewBox="0 0 500.000000 500.000000"
 preserveAspectRatio="xMidYMid meet">
<metadata>
Created by potrace 1.15, written by Peter Selinger 2001-2017
</metadata>
<g transform="translate(0.000000,500.000000) scale(0.100000,-0.100000)"
fill="#5CCFE6" stroke="none">
<path d="M1050 4661 c-129 -29 -296 -94 -395 -154 -422 -257 -625 -676 -585
-1209 6 -84 16 -180 21 -213 6 -33 15 -85 20 -115 11 -65 55 -262 68 -305 5
-16 15 -57 21 -90 6 -33 20 -91 30 -130 51 -197 75 -368 65 -457 -9 -82 -26
-170 -64 -348 -18 -80 -35 -182 -38 -226 -9 -122 1 -137 237 -365 109 -105
210 -201 225 -213 15 -11 39 -31 54 -44 14 -13 62 -52 106 -86 438 -345 836
-456 1200 -335 161 54 325 161 365 237 16 33 13 127 -6 192 -9 30 -19 82 -21
115 l-5 61 49 44 c27 25 69 62 93 84 114 97 186 247 264 547 40 152 57 200
122 337 54 113 91 232 100 317 5 55 -2 126 -25 245 -37 191 -40 221 -31 272
11 60 54 204 79 263 11 28 16 70 16 150 0 116 -4 133 -71 326 -39 109 -41 129
-16 130 9 1 233 2 497 3 538 1 486 -5 644 81 228 124 251 139 251 157 0 20
-37 41 -185 104 -55 23 -134 57 -175 75 l-75 33 -662 8 c-736 8 -686 3 -759
80 -200 211 -458 348 -789 420 -69 14 -144 20 -315 23 -196 4 -236 2 -310 -14z
m112 -297 c7 -88 15 -92 150 -70 161 26 156 28 190 -76 31 -91 57 -128 118
-163 98 -56 163 -100 180 -120 13 -16 7 -24 -63 -89 -43 -39 -77 -78 -77 -87
0 -9 27 -41 61 -73 33 -31 58 -63 56 -69 -3 -11 -26 -16 -147 -32 -69 -9 -73
-14 -71 -85 3 -103 5 -101 -103 -94 l-92 7 -39 -49 c-62 -78 -98 -114 -114
-114 -8 0 -40 22 -71 50 -32 27 -73 58 -91 69 -41 24 -67 15 -128 -41 -22 -21
-44 -38 -49 -38 -11 0 -36 60 -47 110 -4 19 -16 66 -27 104 l-20 68 -33 -5
c-39 -6 -40 -5 -50 90 -4 34 -12 69 -18 77 -7 9 -54 24 -117 37 -149 29 -153
37 -40 84 125 51 130 62 80 172 -16 36 -30 76 -30 89 0 24 0 24 125 24 l124 0
16 30 c8 16 15 40 15 54 0 37 30 106 45 106 8 0 37 -14 65 -32 45 -28 53 -30
75 -18 14 7 25 16 25 20 0 12 81 120 89 120 5 0 11 -25 13 -56z m963 -1195
c97 -48 145 -109 145 -184 0 -58 -18 -93 -71 -139 -112 -95 -334 -113 -473
-38 -61 33 -124 104 -132 149 -15 82 68 176 195 220 57 20 81 23 176 20 93 -3
118 -7 160 -28z m791 -99 c10 -10 -2 -80 -18 -105 -11 -17 -38 -174 -38 -221
0 -23 -4 -45 -9 -48 -16 -10 -102 28 -141 64 -51 46 -63 80 -49 133 6 22 21
56 34 75 49 73 187 136 221 102z m-248 -1141 c32 -12 52 -67 52 -143 0 -55 -4
-70 -32 -112 -43 -62 -73 -83 -144 -100 -80 -19 -146 -17 -232 6 -90 24 -153
57 -236 126 -76 63 -85 86 -48 121 49 46 183 104 258 111 86 9 351 2 382 -9z"/>
<path d="M4238 4483 c-9 -10 -24 -34 -33 -53 -10 -19 -31 -54 -46 -77 -44 -63
-40 -74 45 -117 59 -31 77 -36 93 -27 22 11 93 172 93 208 0 22 -31 49 -83 71
-38 16 -51 15 -69 -5z"/>
<path d="M4585 4431 c-47 -29 -245 -236 -245 -256 0 -37 80 -125 112 -125 28
0 262 223 278 265 10 27 -4 53 -53 98 -47 43 -52 43 -92 18z"/>
<path d="M4474 3993 c-13 -14 -15 -29 -11 -82 8 -99 2 -97 278 -105 275 -9
265 -13 254 94 -4 36 -12 71 -19 78 -9 9 -75 15 -222 22 -272 12 -260 13 -280
-7z"/>
<path d="M4407 3708 c-21 -28 -36 -58 -35 -65 2 -7 72 -83 157 -168 103 -105
160 -155 175 -155 14 0 32 18 59 57 20 31 37 63 37 71 0 8 -21 36 -48 61 -209
203 -263 251 -284 251 -16 0 -35 -16 -61 -52z"/>
<path d="M4253 3590 c-44 -25 -53 -35 -53 -58 0 -15 6 -37 13 -49 6 -12 25
-48 42 -79 16 -31 42 -70 57 -86 l27 -29 38 20 c47 24 83 57 83 77 0 18 -87
193 -108 217 -21 24 -39 21 -99 -13z"/>
</g>
</svg>
