<?xml version="1.0" standalone="no"?>
<!DOCTYPE svg PUBLIC "-//W3C//DTD SVG 20010904//EN"
 "http://www.w3.org/TR/2001/REC-SVG-20010904/DTD/svg10.dtd">
<svg version="1.0" xmlns="http://www.w3.org/2000/svg"
 width="240.000000pt" height="240.000000pt" viewBox="0 0 240.000000 240.000000"
 preserveAspectRatio="xMidYMid meet">
<metadata>
Created by potrace 1.15, written by Peter Selinger 2001-2017
</metadata>
<g transform="translate(0.000000,240.000000) scale(0.100000,-0.100000)"
fill="#5CCFE6" stroke="none">
<path d="M1997 1750 c-121 -31 -227 -147 -244 -267 -5 -38 -25 -73 -112 -195
-96 -134 -108 -148 -136 -148 -16 0 -48 -9 -71 -19 l-40 -18 -444 186 -444
187 -31 60 c-54 101 -144 152 -253 141 -207 -21 -294 -273 -146 -421 74 -75
195 -97 283 -52 31 16 31 16 476 -171 l446 -187 20 -46 c51 -116 175 -181 288
-150 95 25 173 108 187 197 7 45 9 47 153 154 115 85 153 109 178 109 48 0
128 34 177 73 24 20 57 63 76 99 31 57 34 71 35 148 0 101 -20 153 -85 224
-75 81 -208 122 -313 96z m161 -116 c175 -73 180 -320 8 -400 -91 -42 -174
-27 -247 46 -99 99 -84 256 33 335 19 12 42 25 53 28 42 10 117 6 153 -9z
m-1819 -34 c36 -18 81 -63 81 -80 0 -5 -30 5 -67 21 -38 16 -83 29 -101 29
-93 0 -162 -95 -132 -184 15 -45 51 -75 128 -106 34 -14 62 -29 62 -33 0 -5
-29 -8 -64 -5 -119 7 -193 89 -184 203 11 136 156 217 277 155z m1281 -535
c34 -18 77 -64 89 -98 6 -16 11 -52 11 -81 0 -131 -142 -224 -263 -172 -33 14
-105 82 -96 91 3 2 38 -9 79 -26 53 -23 82 -30 108 -26 99 17 150 119 103 207
-18 34 -72 70 -151 99 -35 13 -35 14 -10 21 30 10 96 2 130 -15z"/>
<path d="M2000 1578 c-59 -31 -82 -65 -88 -131 -9 -115 86 -200 197 -176 149
33 176 235 41 306 -54 29 -94 29 -150 1z"/>
</g>
</svg>
