<svg fill="#5CCFE6" height="512pt" viewBox="-76 0 512 512" width="512pt" xmlns="http://www.w3.org/2000/svg"><path d="m190 60c5.519531 0 10-4.480469 10-10s-4.480469-10-10-10-10 4.480469-10 10 4.480469 10 10 10zm0 0"/><path d="m60 377.472656v44.527344c0 49.625 40.375 90 90 90h60c49.625 0 90-40.375 90-90v-44.527344c35.210938-9.078125 60-40.921875 60-77.472656 0-17-5.414062-33.503906-15.363281-47.136719 10.199219-22.960937 15.363281-47.441406 15.363281-72.863281 0-99.253906-80.746094-180-180-180s-180 80.746094-180 180c0 25.421875 5.164062 49.902344 15.363281 72.863281-9.949219 13.632813-15.363281 30.136719-15.363281 47.136719 0 36.894531 25.109375 68.46875 60 77.472656zm150 114.527344h-60c-38.597656 0-70-31.402344-70-70v-42h3.820312l11.703126 23.414062c4.761718 9.519532 14 15.679688 24.476562 16.488282v10.097656c0 5.523438 4.476562 10 10 10s10-4.476562 10-10v-10h30v10c0 5.523438 4.476562 10 10 10s10-4.476562 10-10v-10h30v10c0 5.523438 4.476562 10 10 10s10-4.476562 10-10v-10.097656c10.476562-.808594 19.710938-6.96875 24.476562-16.492188l11.703126-23.410156h3.820312v42c0 38.597656-31.402344 70-70 70zm-173.976562-242.132812c-10.632813-21.859376-16.023438-45.367188-16.023438-69.867188 0-88.222656 71.773438-160 160-160s160 71.777344 160 160c0 24.5-5.390625 48.007812-16.023438 69.867188-1.75 3.597656-1.1875 7.890624 1.429688 10.914062 9.410156 10.882812 14.59375 24.8125 14.59375 39.21875 0 29.667969-22.105469 55.199219-51.414062 59.390625-.792969.113281-1.546876.328125-2.261719.609375h-16.324219c-3.789062 0-7.25 2.140625-8.945312 5.527344l-14.46875 28.941406c-1.34375 2.683594-3.761719 4.550781-6.585938 5.230469v-9.699219c0-5.523438-4.476562-10-10-10s-10 4.476562-10 10v10h-30v-10c0-5.523438-4.476562-10-10-10s-10 4.476562-10 10v10h-30v-10c0-5.523438-4.476562-10-10-10s-10 4.476562-10 10v9.699219c-2.824219-.679688-5.242188-2.546875-6.585938-5.230469l-14.46875-28.941406c-1.695312-3.386719-5.15625-5.527344-8.945312-5.527344h-16.324219c-.714843-.28125-1.46875-.496094-2.257812-.609375-29.3125-4.195313-51.417969-29.726563-51.417969-59.390625 0-14.40625 5.183594-28.335938 14.59375-39.21875 2.617188-3.023438 3.179688-7.316406 1.429688-10.914062zm0 0"/><path d="m225.078125 68.792969c35.964844 14.636719 62.769531 45.855469 71.699219 83.515625 1.273437 5.355468 6.652344 8.703125 12.039062 7.421875 5.375-1.273438 8.699219-6.664063 7.421875-12.039063-10.417969-43.9375-41.679687-80.355468-83.621093-97.425781-5.113282-2.082031-10.949219.378906-13.03125 5.496094-2.078126 5.113281.378906 10.949219 5.492187 13.03125zm0 0"/><path d="m138.28125 282.429688c18.859375-18.867188 34.738281-64.261719 14.148438-84.863282-20.671876-20.664062-66.167969-4.53125-84.859376 14.152344-19.492187 19.488281-19.492187 51.210938 0 70.714844 19.496094 19.484375 51.214844 19.492187 70.710938-.003906zm-56.570312-56.566407c13.847656-13.84375 46.691406-24.03125 56.574218-14.152343 9.828125 9.832031-.191406 42.613281-14.148437 56.578124-11.691407 11.691407-30.726563 11.691407-42.421875 0-11.695313-11.699218-11.699219-30.734374-.003906-42.425781zm0 0"/><path d="m221.71875 282.429688c19.488281 19.488281 51.210938 19.492187 70.714844 0 19.488281-19.5 19.488281-51.222657 0-70.710938-.003906 0-.003906 0-.003906 0-18.875-18.867188-64.28125-34.71875-84.863282-14.148438-20.621094 20.632813-4.589844 66.105469 14.152344 84.859376zm-.007812-70.714844c9.929687-9.925782 42.796874.375 56.578124 14.144531 11.695313 11.695313 11.691407 30.730469 0 42.425781-11.699218 11.695313-30.734374 11.699219-42.425781.003906-13.957031-13.964843-23.976562-46.746093-14.152343-56.574218zm0 0"/><path d="m140 340c0 13.6875 8.058594 20 14.171875 20h51.65625c6.179687 0 14.171875-6.382812 14.171875-20 0-20.601562-15.578125-60-40-60s-40 39.398438-40 60zm40-40c7.691406 0 20 25.367188 20 40h-40c0-14.429688 12.257812-40 20-40zm0 0"/></svg>